<?xml version="1.0" encoding="utf-8"?>
<!-- Generator: Adobe Illustrator 24.3.0, SVG Export Plug-In . SVG Version: 6.00 Build 0)  -->
<svg version="1.1" id="图层_1" xmlns="http://www.w3.org/2000/svg" xmlns:xlink="http://www.w3.org/1999/xlink" x="0px" y="0px"
	 viewBox="0 0 1024 1024" style="enable-background:new 0 0 1024 1024;" xml:space="preserve">
<style type="text/css">
	.st0{fill:url(#SVGID_1_);}
</style>
<linearGradient id="SVGID_1_" gradientUnits="userSpaceOnUse" x1="63.6841" y1="512" x2="960.3547" y2="512">
	<stop  offset="0" style="stop-color:#ECC561"/>
	<stop  offset="1" style="stop-color:#AD8957"/>
</linearGradient>
<path class="st0" d="M932.8,146.4c-15.2,0-27.6,12.4-27.6,27.6v44l-786.3,224v-12.8c0-15.2-12.4-27.6-27.6-27.6S63.7,414,63.7,429.2
	v165.5c0,15.2,12.4,27.6,27.6,27.6c15.2,0,27.5-12.3,27.6-27.5l253.6,64.3c-3.3,12.5-5.3,25.5-5.3,39c0,83.7,68.1,151.7,151.7,151.7
	c71.4,0,131.3-49.7,147.4-116.2l238.9,60.6V850c0,15.2,12.4,27.6,27.6,27.6s27.6-12.4,27.6-27.6V174
	C960.4,158.8,948,146.4,932.8,146.4z M518.9,794.8c-53.2,0-96.6-43.3-96.6-96.6c0-8.8,1.3-17.3,3.5-25.5l187,47.4
	C602.9,762.9,564.6,794.8,518.9,794.8z"/>
</svg>
